<?xml version="1.0" encoding="UTF-8" standalone="no"?>
<!-- Created with Inkscape (http://www.inkscape.org/) -->

<svg width="192" height="192" viewBox="0 0 192 192" version="1.1" id="svg1" inkscape:version="1.4 (86a8ad7, 2024-10-11)" sodipodi:docname="delta.svg" xmlns:inkscape="http://www.inkscape.org/namespaces/inkscape" xmlns:sodipodi="http://sodipodi.sourceforge.net/DTD/sodipodi-0.dtd" xmlns="http://www.w3.org/2000/svg" xmlns:svg="http://www.w3.org/2000/svg">
  <sodipodi:namedview id="namedview1" pagecolor="#505050" bordercolor="#eeeeee" borderopacity="1" inkscape:showpageshadow="0" inkscape:pageopacity="0" inkscape:pagecheckerboard="0" inkscape:deskcolor="#505050" inkscape:document-units="mm" inkscape:zoom="2.6618687" inkscape:cx="93.731145" inkscape:cy="80.958163" inkscape:window-width="1920" inkscape:window-height="986" inkscape:window-x="-11" inkscape:window-y="-11" inkscape:window-maximized="1" inkscape:current-layer="layer1" />
  <defs id="defs1" />
  <g inkscape:label="Layer 1" inkscape:groupmode="layer" id="layer1">
    <circle style="fill:#ff66ff;stroke:#880088;stroke-width:6.75023622" id="path1" cx="96" cy="96" r="87.010132" />
    <path style="-inkscape-font-specification:'Luckiest Guy, Normal';fill:#880088;stroke-width:6.751" d="m 94.484009,163.16332 q -11.934178,0 -21.34705,-4.87452 -9.412872,-4.87452 -14.791656,-13.78314 -5.210698,-8.90861 -5.210698,-20.84278 0,-16.13636 7.90009,-26.05349 8.068176,-9.917133 22.523658,-15.632091 -3.866001,-2.521305 -7.563915,-5.546871 -3.697914,-3.025567 -6.051132,-7.395829 -2.353218,-4.538349 -2.353218,-10.925655 0,-6.051132 3.36174,-11.76609 3.36174,-5.883046 10.589481,-9.58096 7.227742,-3.866001 18.657661,-3.866001 8.40435,0 14.62357,1.848957 6.21922,1.848957 10.42139,4.370262 4.37026,2.353218 6.38731,4.202175 l -6.38731,11.598004 q -5.2107,-4.034088 -11.598,-6.891567 -6.21922,-3.025566 -13.61505,-3.025566 -7.059654,0 -11.093742,2.017044 -3.866002,2.017044 -5.378785,5.04261 -1.512783,2.857479 -1.512783,5.546871 0,2.857479 1.344696,5.714958 1.344696,2.857479 5.378785,6.219219 4.202175,3.193653 12.438439,7.563916 14.95974,7.900089 22.18748,15.632091 7.22774,7.563913 9.58096,14.959743 2.35322,7.22774 2.35322,14.2874 0,14.28739 -5.71496,23.36409 -5.71496,9.0767 -15.12783,13.44696 -9.24478,4.37026 -20.002351,4.37026 z m 0.336174,-12.10226 q 12.438437,0 19.161917,-8.06818 6.89157,-8.23626 6.89157,-20.6747 0,-12.43844 -6.72348,-20.6747 -6.72348,-8.236265 -18.153398,-13.615049 -12.774613,4.370262 -20.338528,12.438439 -7.395828,7.90009 -7.395828,21.85131 0,12.9427 7.227741,20.84279 7.227741,7.90009 19.330006,7.90009 z" id="text1" aria-label="δ" />
  </g>
</svg>
